# Created by Kenney (www.kenney.nl)

mtllib Untitled-1.mtl

v 1 2 -0.5
v 1.5 2 -0.5
v 1 3 -0.5
v 1.5 3 -0.5
v 1.5 3 0.5
v 1 3 0.5
v 1.5 2 0.5
v 1 2 0.5
v 1 1 -0.5
v 1.5 1 -0.5
v 1.5 1 0.5
v 1 1 0.5
v 1 0 -0.5
v 1.5 0 -0.5
v 1.5 0 0.5
v 1 0 0.5
v 1 -1 -0.5
v 1.5 -1 -0.5
v 1.5 -1 0.5
v 1 -1 0.5
v 0.9659258 1.258819 0.5
v 0.8660254 1.5 0.5
v 0.7071068 1.707107 0.5
v 0.5 1.866025 0.5
v 0.258819 1.965926 0.5
v 0 2 0.5
v 0.9659258 1.258819 -0.5
v 0.8660254 1.5 -0.5
v 0.7071068 1.707107 -0.5
v 0.5 1.866025 -0.5
v 0.258819 1.965926 -0.5
v 0 2 -0.5
v 0.7071068 0.2928932 -0.5
v 0.5 0.1339746 -0.5
v 0.8660254 0.5 -0.5
v 0.9659258 0.741181 -0.5
v 0 0 -0.5
v 0.258819 0.03407419 -0.5
v 0.7071068 0.2928932 0.5
v 0.5 0.1339746 0.5
v 0.8660254 0.5 0.5
v 0.9659258 0.741181 0.5
v 0 0 0.5
v 0.258819 0.03407419 0.5
v -1 1 -0.5
v -0.9659258 1.258819 -0.5
v -1 2 -0.5
v -0.8660254 1.5 -0.5
v -0.7071068 1.707107 -0.5
v -0.5 1.866025 -0.5
v -0.258819 1.965926 -0.5
v -1 1 0.5
v -1 2 0.5
v -0.9659258 1.258819 0.5
v -0.8660254 1.5 0.5
v -0.7071068 1.707107 0.5
v -0.5 1.866025 0.5
v -0.258819 1.965926 0.5
v -1 0 0.5
v -1 0 -0.5
v -0.258819 0.03407419 -0.5
v -0.5 0.1339746 -0.5
v -0.7071068 0.2928932 -0.5
v -0.8660254 0.5 -0.5
v -0.9659258 0.741181 -0.5
v -0.258819 0.03407419 0.5
v -0.5 0.1339746 0.5
v -0.7071068 0.2928932 0.5
v -0.8660254 0.5 0.5
v -0.9659258 0.741181 0.5
v -1.5 2 0.5
v -1.5 2 -0.5
v -1.5 3 -0.5
v -1 3 -0.5
v -1.5 3 0.5
v -1 3 0.5
v -1.5 1 0.5
v -1.5 1 -0.5
v -1.5 0 0.5
v -1.5 0 -0.5
v -1 -1 0.5
v -1 -1 -0.5
v -1.5 -1 0.5
v -1.5 -1 -0.5

vn 0 0 -1
vn 0 1 0
vn 0 -1 0
vn -1 0 0
vn 0 0 1
vn 1 0 0
vn -0.9914449 -0.1305262 0
vn -0.9659258 -0.258819 0
vn -0.258819 -0.9659258 0
vn -0.1305262 -0.9914449 0
vn -0.5 -0.8660254 0
vn -0.7071068 -0.7071068 0
vn -0.8660254 -0.5 0
vn -0.258819 0.9659258 0
vn -0.1305262 0.9914449 0
vn -0.8660254 0.5 0
vn -0.9659258 0.258819 0
vn -0.7071068 0.7071068 0
vn -0.5 0.8660254 0
vn -0.9914449 0.1305262 0
vn 0.9914449 -0.1305262 0
vn 0.9659258 -0.258819 0
vn 0.1305262 -0.9914449 0
vn 0.258819 -0.9659258 0
vn 0.5 -0.8660254 0
vn 0.7071068 -0.7071068 0
vn 0.8660254 -0.5 0
vn 0.1305262 0.9914449 0
vn 0.258819 0.9659258 0
vn 0.5 0.8660254 0
vn 0.7071068 0.7071068 0
vn 0.8660254 0.5 0
vn 0.9914449 0.1305262 0
vn 0.9659258 0.258819 0

vt 0 0
vt NaN 0
vt NaN 0
vt NaN 0
vt NaN 0
vt NaN 0
vt NaN 0
vt NaN 0
vt NaN 0
vt NaN 0
vt NaN 0
vt NaN 0
vt NaN 0
vt NaN 0
vt NaN 0
vt NaN 0
vt NaN 0
vt NaN 0
vt NaN 0
vt NaN 0
vt NaN 0
vt NaN 0
vt NaN 0
vt NaN 0
vt NaN 0
vt NaN 0
vt NaN 0
vt 0 NaN
vt 0 NaN
vt 0 NaN
vt 0 NaN
vt 0 NaN
vt 0 NaN
vt 0 NaN
vt 0 NaN
vt 0 NaN
vt 0 NaN
vt 0 NaN
vt 0 NaN
vt 0 NaN
vt 0 NaN
vt 0 NaN
vt 0 NaN
vt 0 NaN
vt NaN 0
vt NaN 0
vt NaN 0
vt NaN 0
vt NaN 0
vt NaN 0
vt NaN 0
vt NaN 0
vt NaN 0
vt NaN 0
vt NaN 0
vt NaN 0
vt NaN 0
vt NaN 0
vt NaN 0
vt NaN 0
vt NaN 0
vt 0 NaN
vt 0 NaN
vt 0 NaN
vt 0 NaN
vt 0 NaN
vt 0 NaN
vt 0 NaN
vt 0 NaN
vt 0 NaN
vt 0 NaN
vt 0 NaN
vt 0 NaN
vt 0 NaN
vt 0 NaN
vt 0 NaN
vt 0 NaN
vt 0 NaN
vt 0 NaN
vt 0 NaN
vt 0 NaN
vt 0 NaN
vt 0 NaN
vt 0 NaN
vt 0 NaN
vt 0 NaN
vt 0 NaN
vt 0 NaN
vt 0 NaN
vt 0 NaN
vt 0 NaN
vt 0 NaN
vt 0 NaN
vt 0 NaN
vt 0 NaN
vt 0 NaN
vt 0 NaN
vt 0 NaN
vt 0 NaN

usemtl color15

f 3/1/1 2/2/1 1/1/1
f 2/2/1 3/1/1 4/1/1
f 3/1/2 5/3/2 4/1/2
f 5/3/2 3/1/2 6/1/2
f 8/1/3 2/4/3 7/1/3
f 2/4/3 8/1/3 1/1/3
f 8/1/4 3/5/4 1/1/4
f 3/5/4 8/1/4 6/1/4
f 7/1/5 6/6/5 8/1/5
f 6/6/5 7/1/5 5/1/5
f 5/1/6 2/7/6 4/1/6
f 2/7/6 5/1/6 7/1/6
f 1/1/1 10/8/1 9/1/1
f 10/8/1 1/1/1 2/2/1
f 1/1/2 7/9/2 2/1/2
f 7/9/2 1/1/2 8/1/2
f 12/1/3 10/10/3 11/1/3
f 10/10/3 12/1/3 9/1/3
f 12/1/4 1/1/4 9/1/4
f 1/1/4 12/1/4 8/1/4
f 11/1/5 8/1/5 12/1/5
f 8/1/5 11/1/5 7/1/5
f 7/1/6 10/11/6 2/7/6
f 10/11/6 7/1/6 11/1/6
f 9/1/1 14/12/1 13/1/1
f 14/12/1 9/1/1 10/8/1
f 9/1/2 11/13/2 10/1/2
f 11/13/2 9/1/2 12/1/2
f 16/1/3 14/14/3 15/1/3
f 14/14/3 16/1/3 13/1/3
f 16/1/4 9/1/4 13/1/4
f 9/1/4 16/1/4 12/1/4
f 15/1/5 12/1/5 16/1/5
f 12/1/5 15/1/5 11/1/5
f 11/1/6 14/15/6 10/11/6
f 14/15/6 11/1/6 15/1/6
f 13/1/1 18/16/1 17/1/1
f 18/16/1 13/1/1 14/12/1
f 13/1/2 15/17/2 14/1/2
f 15/17/2 13/1/2 16/1/2
f 20/1/3 18/18/3 19/1/3
f 18/18/3 20/1/3 17/1/3
f 20/1/4 13/1/4 17/1/4
f 13/1/4 20/1/4 16/1/4
f 19/1/5 16/1/5 20/1/5
f 16/1/5 19/1/5 15/1/5
f 15/1/6 18/19/6 14/15/6
f 18/19/6 15/1/6 19/1/6
f 8/1/5 21/20/5 12/1/5
f 21/20/5 8/1/5 22/1/5
f 22/1/5 8/1/5 23/1/5
f 23/1/5 8/1/5 24/1/5
f 24/1/5 8/1/5 25/1/5
f 25/1/5 8/1/5 26/1/5
f 27/1/1 1/1/1 9/1/1
f 1/1/1 27/1/1 28/1/1
f 1/1/1 28/1/1 29/1/1
f 1/1/1 29/1/1 30/1/1
f 1/1/1 30/1/1 31/1/1
f 1/1/1 31/1/1 32/1/1
f 8/1/6 9/21/6 1/1/6
f 9/21/6 8/1/6 12/1/6
f 32/1/2 8/1/2 1/1/2
f 8/1/2 32/1/2 26/1/2
f 12/1/7 27/22/8 9/1/7
f 26/1/10 31/23/9 25/1/9
f 25/1/9 30/24/11 24/1/11
f 24/1/11 29/25/12 23/1/12
f 29/25/12 22/26/13 23/1/12
f 29/25/12 24/1/11 30/24/11
f 30/24/11 25/1/9 31/23/9
f 31/23/9 26/1/10 32/1/10
f 22/26/13 29/25/12 28/1/13
f 28/1/13 21/27/8 22/26/13
f 27/22/8 12/1/7 21/27/8
f 21/27/8 28/1/13 27/22/8
f 13/1/1 34/1/1 33/28/1
f 13/1/1 33/28/1 35/29/1
f 13/1/1 35/29/1 36/30/1
f 13/1/1 36/30/1 9/1/1
f 38/1/1 13/1/1 37/31/1
f 13/1/1 38/1/1 34/1/1
f 40/1/5 16/1/5 39/32/5
f 39/32/5 16/1/5 41/33/5
f 41/33/5 16/1/5 42/34/5
f 42/34/5 16/1/5 12/1/5
f 16/1/5 44/1/5 43/35/5
f 44/1/5 16/1/5 40/1/5
f 43/1/3 13/1/3 16/1/3
f 13/1/3 43/1/3 37/36/3
f 12/1/6 13/1/6 9/21/6
f 13/1/6 12/1/6 16/37/6
f 37/1/15 44/1/14 38/38/14
f 44/1/14 37/1/15 43/39/15
f 41/1/16 36/1/17 35/40/16
f 36/1/17 41/1/16 42/41/17
f 39/1/18 35/40/16 33/42/18
f 35/40/16 39/1/18 41/1/16
f 34/1/19 39/1/18 33/42/18
f 39/1/18 34/1/19 40/43/19
f 38/38/14 40/43/19 34/1/19
f 40/43/19 38/38/14 44/1/14
f 42/41/17 9/1/20 36/1/17
f 9/1/20 42/41/17 12/44/20
f 47/1/1 46/45/1 45/1/1
f 46/45/1 47/1/1 48/1/1
f 48/1/1 47/1/1 49/1/1
f 49/1/1 47/1/1 50/1/1
f 50/1/1 47/1/1 51/1/1
f 51/1/1 47/1/1 32/1/1
f 54/1/5 53/46/5 52/1/5
f 53/46/5 54/1/5 55/1/5
f 53/46/5 55/1/5 56/1/5
f 53/46/5 56/1/5 57/1/5
f 53/46/5 57/1/5 58/1/5
f 53/46/5 58/1/5 26/1/5
f 45/1/21 54/47/22 52/1/21
f 52/1/4 47/48/4 45/1/4
f 47/48/4 52/1/4 53/1/4
f 47/1/2 26/1/2 32/1/2
f 26/1/2 47/1/2 53/1/2
f 58/1/24 32/49/23 26/1/23
f 57/1/25 51/50/24 58/1/24
f 56/1/26 50/51/25 57/1/25
f 56/1/26 48/52/27 49/1/26
f 50/51/25 56/1/26 49/1/26
f 51/50/24 57/1/25 50/51/25
f 32/49/23 58/1/24 51/50/24
f 54/47/22 45/1/21 46/1/22
f 46/1/22 55/53/27 54/47/22
f 55/53/27 46/1/22 48/52/27
f 48/52/27 56/1/26 55/53/27
f 59/1/3 37/36/3 43/1/3
f 37/36/3 59/1/3 60/1/3
f 60/1/1 61/54/1 37/31/1
f 61/54/1 60/1/1 62/1/1
f 62/1/1 60/1/1 63/1/1
f 63/1/1 60/1/1 64/1/1
f 64/1/1 60/1/1 65/1/1
f 65/1/1 60/1/1 45/1/1
f 59/1/4 45/1/4 60/1/4
f 45/1/4 59/1/4 52/1/4
f 61/1/29 43/55/28 37/1/28
f 62/1/30 66/56/29 61/1/29
f 63/1/31 67/57/30 62/1/30
f 63/1/31 69/58/32 68/1/31
f 67/57/30 63/1/31 68/1/31
f 66/56/29 62/1/30 67/57/30
f 43/55/28 61/1/29 66/56/29
f 59/1/5 70/59/5 52/1/5
f 70/59/5 59/1/5 69/1/5
f 69/1/5 59/1/5 68/1/5
f 68/1/5 59/1/5 67/1/5
f 67/1/5 59/1/5 66/1/5
f 66/1/5 59/1/5 43/35/5
f 52/1/33 65/60/34 45/1/33
f 70/1/34 64/61/32 65/60/34
f 65/60/34 52/1/33 70/1/34
f 64/61/32 70/1/34 69/58/32
f 69/58/32 63/1/31 64/61/32
f 71/1/3 47/1/3 53/62/3
f 47/1/3 71/1/3 72/63/3
f 73/1/1 47/1/1 72/64/1
f 47/1/1 73/1/1 74/65/1
f 71/1/4 73/1/4 72/66/4
f 73/1/4 71/1/4 75/67/4
f 73/1/2 76/1/2 74/68/2
f 76/1/2 73/1/2 75/69/2
f 53/46/5 75/1/5 71/70/5
f 75/1/5 53/46/5 76/71/5
f 76/1/6 47/1/6 74/72/6
f 47/1/6 76/1/6 53/73/6
f 77/1/3 45/1/3 52/74/3
f 45/1/3 77/1/3 78/75/3
f 72/64/1 45/1/1 78/76/1
f 45/1/1 72/64/1 47/1/1
f 77/1/4 72/66/4 78/77/4
f 72/66/4 77/1/4 71/1/4
f 72/1/2 53/1/2 47/1/2
f 53/1/2 72/1/2 71/78/2
f 52/1/5 71/70/5 77/79/5
f 71/70/5 52/1/5 53/46/5
f 53/73/6 45/1/6 47/1/6
f 45/1/6 53/73/6 52/80/6
f 79/1/3 60/1/3 59/1/3
f 60/1/3 79/1/3 80/81/3
f 78/76/1 60/1/1 80/82/1
f 60/1/1 78/76/1 45/1/1
f 79/1/4 78/77/4 80/83/4
f 78/77/4 79/1/4 77/1/4
f 78/1/2 52/1/2 45/84/2
f 52/1/2 78/1/2 77/85/2
f 59/1/5 77/79/5 79/86/5
f 77/79/5 59/1/5 52/1/5
f 52/80/6 60/1/6 45/1/6
f 60/1/6 52/80/6 59/87/6
f 83/1/3 82/1/3 81/88/3
f 82/1/3 83/1/3 84/89/3
f 80/82/1 82/1/1 84/90/1
f 82/1/1 80/82/1 60/1/1
f 83/1/4 80/83/4 84/91/4
f 80/83/4 83/1/4 79/1/4
f 80/1/2 59/1/2 60/92/2
f 59/1/2 80/1/2 79/93/2
f 81/1/5 79/86/5 83/94/5
f 79/86/5 81/1/5 59/1/5
f 59/87/6 82/1/6 60/1/6
f 82/1/6 59/87/6 81/95/6
f 53/62/3 1/1/3 8/1/3
f 1/1/3 53/62/3 47/1/3
f 53/1/4 74/1/4 47/48/4
f 74/1/4 53/1/4 76/96/4
f 74/65/1 1/1/1 47/1/1
f 1/1/1 74/65/1 3/1/1
f 6/6/5 53/46/5 8/1/5
f 53/46/5 6/6/5 76/71/5
f 6/1/6 1/1/6 3/97/6
f 1/1/6 6/1/6 8/1/6
f 74/68/2 6/1/2 3/1/2
f 6/1/2 74/68/2 76/1/2
f 81/88/3 17/1/3 20/1/3
f 17/1/3 81/88/3 82/1/3
f 81/1/4 60/1/4 82/98/4
f 60/1/4 81/1/4 59/1/4
f 60/1/1 17/1/1 82/1/1
f 17/1/1 60/1/1 13/1/1
f 16/1/5 81/1/5 20/1/5
f 81/1/5 16/1/5 59/1/5
f 16/37/6 17/1/6 13/1/6
f 17/1/6 16/37/6 20/99/6
f 60/92/2 16/1/2 13/1/2
f 16/1/2 60/92/2 59/1/2

